<mxfile host="Electron" modified="2023-12-09T09:26:24.928Z" agent="Mozilla/5.0 (X11; Linux x86_64) AppleWebKit/537.36 (KHTML, like Gecko) draw.io/22.1.2 Chrome/114.0.5735.289 Electron/25.9.4 Safari/537.36" etag="qwk_krebVisKwZ5vrKne" version="22.1.2" type="device">
  <diagram name="Page-1" id="Nv8vaJcM4QDIebQTit32">
    <mxGraphModel dx="1434" dy="783" grid="1" gridSize="10" guides="1" tooltips="1" connect="1" arrows="1" fold="1" page="1" pageScale="1" pageWidth="827" pageHeight="1169" math="0" shadow="0">
      <root>
        <mxCell id="0" />
        <mxCell id="1" parent="0" />
        <mxCell id="jsPVeI7ytuAK9CtYSdAV-10" value="" style="edgeStyle=none;orthogonalLoop=1;jettySize=auto;html=1;rounded=0;entryX=0.073;entryY=0.761;entryDx=0;entryDy=0;entryPerimeter=0;" parent="1" target="zB5RQNQVIBqfSYqidaWU-1" edge="1">
          <mxGeometry width="100" relative="1" as="geometry">
            <mxPoint x="44.82890589824404" y="411.45416880503114" as="sourcePoint" />
            <mxPoint x="251.57049527239968" y="342.52021567792485" as="targetPoint" />
            <Array as="points" />
          </mxGeometry>
        </mxCell>
        <mxCell id="jsPVeI7ytuAK9CtYSdAV-11" value="" style="edgeStyle=none;orthogonalLoop=1;jettySize=auto;html=1;rounded=0;exitX=0.107;exitY=0.175;exitDx=0;exitDy=0;exitPerimeter=0;" parent="1" source="zB5RQNQVIBqfSYqidaWU-3" edge="1">
          <mxGeometry width="100" relative="1" as="geometry">
            <mxPoint x="250.34106267056117" y="417.9714862475108" as="sourcePoint" />
            <mxPoint x="44.82890589824404" y="418.08945476663706" as="targetPoint" />
            <Array as="points" />
          </mxGeometry>
        </mxCell>
        <mxCell id="zB5RQNQVIBqfSYqidaWU-1" value="Register Complaint" style="ellipse;whiteSpace=wrap;html=1;" parent="1" vertex="1">
          <mxGeometry x="227.43266546600634" y="239.60000000000002" width="187.21296713192254" height="122.73006605091707" as="geometry" />
        </mxCell>
        <mxCell id="zB5RQNQVIBqfSYqidaWU-3" value="Track Complaint" style="ellipse;whiteSpace=wrap;html=1;" parent="1" vertex="1">
          <mxGeometry x="226.26744709590275" y="396.8838087760489" width="187.21296713192254" height="122.73006605091707" as="geometry" />
        </mxCell>
        <mxCell id="zB5RQNQVIBqfSYqidaWU-4" value="" style="edgeStyle=none;orthogonalLoop=1;jettySize=auto;html=1;rounded=0;entryX=0;entryY=0.5;entryDx=0;entryDy=0;" parent="1" target="zB5RQNQVIBqfSYqidaWU-3" edge="1">
          <mxGeometry width="100" relative="1" as="geometry">
            <mxPoint x="56.43854119765872" y="457.9011705362725" as="sourcePoint" />
            <mxPoint x="212.8950923007655" y="444.4417093707793" as="targetPoint" />
            <Array as="points" />
          </mxGeometry>
        </mxCell>
        <mxCell id="zB5RQNQVIBqfSYqidaWU-6" value="" style="edgeStyle=none;orthogonalLoop=1;jettySize=auto;html=1;rounded=0;exitX=0.004;exitY=0.436;exitDx=0;exitDy=0;exitPerimeter=0;" parent="1" source="zB5RQNQVIBqfSYqidaWU-1" edge="1">
          <mxGeometry width="100" relative="1" as="geometry">
            <mxPoint x="218.9734353894642" y="300.8660694449327" as="sourcePoint" />
            <mxPoint x="10" y="378.2777389970016" as="targetPoint" />
            <Array as="points" />
          </mxGeometry>
        </mxCell>
        <mxCell id="zB5RQNQVIBqfSYqidaWU-11" value="0.4.2" style="text;html=1;align=center;verticalAlign=middle;resizable=0;points=[];autosize=1;strokeColor=none;fillColor=none;" parent="1" vertex="1">
          <mxGeometry x="286.44304367402077" y="473.59010005787195" width="50" height="30" as="geometry" />
        </mxCell>
        <mxCell id="zB5RQNQVIBqfSYqidaWU-12" value="0.4.1" style="text;html=1;align=center;verticalAlign=middle;resizable=0;points=[];autosize=1;strokeColor=none;fillColor=none;" parent="1" vertex="1">
          <mxGeometry x="286.27102656461057" y="319.3745429330961" width="50" height="30" as="geometry" />
        </mxCell>
        <mxCell id="Zqg8r1I6BDAfEhOJX9To-3" value="Complaint&lt;br style=&quot;font-size: 12px;&quot;&gt;Fetched" style="text;html=1;align=center;verticalAlign=middle;resizable=0;points=[];autosize=1;strokeColor=none;fillColor=none;fontSize=12;" parent="1" vertex="1">
          <mxGeometry x="439.204128770824" y="477.3743935446282" width="80" height="40" as="geometry" />
        </mxCell>
        <mxCell id="v7KHOAzaiJnz43zt4m3B-2" value="Complaint" style="shape=partialRectangle;whiteSpace=wrap;html=1;left=0;right=0;fillColor=none;" parent="1" vertex="1">
          <mxGeometry x="579.2976136875282" y="417.9780388785502" width="240.70238631247187" height="80.54160584591433" as="geometry" />
        </mxCell>
        <mxCell id="v7KHOAzaiJnz43zt4m3B-4" value="" style="edgeStyle=none;orthogonalLoop=1;jettySize=auto;html=1;rounded=0;entryX=0;entryY=0.25;entryDx=0;entryDy=0;exitX=0.971;exitY=0.325;exitDx=0;exitDy=0;exitPerimeter=0;" parent="1" source="zB5RQNQVIBqfSYqidaWU-3" target="v7KHOAzaiJnz43zt4m3B-2" edge="1">
          <mxGeometry width="100" relative="1" as="geometry">
            <mxPoint x="418.8293561458803" y="438.30520606823336" as="sourcePoint" />
            <mxPoint x="448.24853669518234" y="335.5187757505903" as="targetPoint" />
            <Array as="points" />
          </mxGeometry>
        </mxCell>
        <mxCell id="v7KHOAzaiJnz43zt4m3B-5" value="Fetch&lt;br style=&quot;font-size: 12px;&quot;&gt;Complaint" style="text;html=1;align=center;verticalAlign=middle;resizable=0;points=[];autosize=1;strokeColor=none;fillColor=none;fontSize=12;" parent="1" vertex="1">
          <mxGeometry x="439.204128770824" y="399.88475002616485" width="80" height="40" as="geometry" />
        </mxCell>
        <mxCell id="v7KHOAzaiJnz43zt4m3B-6" value="" style="edgeStyle=none;orthogonalLoop=1;jettySize=auto;html=1;rounded=0;exitX=0;exitY=0.75;exitDx=0;exitDy=0;entryX=0.964;entryY=0.675;entryDx=0;entryDy=0;entryPerimeter=0;" parent="1" source="v7KHOAzaiJnz43zt4m3B-2" target="zB5RQNQVIBqfSYqidaWU-3" edge="1">
          <mxGeometry width="100" relative="1" as="geometry">
            <mxPoint x="485.6911301215669" y="565.6376495960598" as="sourcePoint" />
            <mxPoint x="432.20171094101755" y="488.93135831423666" as="targetPoint" />
            <Array as="points" />
          </mxGeometry>
        </mxCell>
        <mxCell id="v7KHOAzaiJnz43zt4m3B-12" value="Complaint&lt;br style=&quot;font-size: 12px;&quot;&gt;Added" style="text;html=1;align=center;verticalAlign=middle;resizable=0;points=[];autosize=1;strokeColor=none;fillColor=none;rotation=30;fontSize=12;" parent="1" vertex="1">
          <mxGeometry x="424.32483115713643" y="352.85147315292727" width="80" height="40" as="geometry" />
        </mxCell>
        <mxCell id="v7KHOAzaiJnz43zt4m3B-14" value="" style="edgeStyle=none;orthogonalLoop=1;jettySize=auto;html=1;rounded=0;entryX=0.25;entryY=0;entryDx=0;entryDy=0;exitX=0.971;exitY=0.325;exitDx=0;exitDy=0;exitPerimeter=0;" parent="1" target="v7KHOAzaiJnz43zt4m3B-2" edge="1">
          <mxGeometry width="100" relative="1" as="geometry">
            <mxPoint x="409.29669067987396" y="277.968486899168" as="sourcePoint" />
            <mxPoint x="580.4628320576318" y="279.3108469965997" as="targetPoint" />
            <Array as="points" />
          </mxGeometry>
        </mxCell>
        <mxCell id="v7KHOAzaiJnz43zt4m3B-15" value="Add&lt;br style=&quot;font-size: 12px;&quot;&gt;Complaint" style="text;html=1;align=center;verticalAlign=middle;resizable=0;points=[];autosize=1;strokeColor=none;fillColor=none;rotation=30;fontSize=12;" parent="1" vertex="1">
          <mxGeometry x="463.57700810445743" y="294.2307834833268" width="80" height="40" as="geometry" />
        </mxCell>
        <mxCell id="v7KHOAzaiJnz43zt4m3B-16" value="" style="edgeStyle=none;orthogonalLoop=1;jettySize=auto;html=1;rounded=0;exitX=0;exitY=0;exitDx=0;exitDy=0;entryX=0.964;entryY=0.675;entryDx=0;entryDy=0;entryPerimeter=0;" parent="1" source="v7KHOAzaiJnz43zt4m3B-2" edge="1">
          <mxGeometry width="100" relative="1" as="geometry">
            <mxPoint x="580.4628320576318" y="319.5816499195569" as="sourcePoint" />
            <mxPoint x="407.9594552003602" y="320.9240100169889" as="targetPoint" />
            <Array as="points" />
          </mxGeometry>
        </mxCell>
        <mxCell id="v7KHOAzaiJnz43zt4m3B-19" value="" style="ellipse;whiteSpace=wrap;html=1;align=center;aspect=fixed;fillColor=none;strokeColor=none;resizable=0;perimeter=centerPerimeter;rotatable=0;allowArrows=0;points=[];outlineConnect=1;" parent="1" vertex="1">
          <mxGeometry x="190.16634398919408" y="367.22463057570087" width="10" height="10" as="geometry" />
        </mxCell>
        <mxCell id="v7KHOAzaiJnz43zt4m3B-23" value="" style="endArrow=none;html=1;rounded=0;entryX=0;entryY=0;entryDx=0;entryDy=0;exitX=0;exitY=1;exitDx=0;exitDy=0;" parent="1" source="v7KHOAzaiJnz43zt4m3B-2" target="v7KHOAzaiJnz43zt4m3B-2" edge="1">
          <mxGeometry width="50" height="50" relative="1" as="geometry">
            <mxPoint x="560.5763169743359" y="383.0766763453207" as="sourcePoint" />
            <mxPoint x="560.5763169743359" y="303.3021334122245" as="targetPoint" />
          </mxGeometry>
        </mxCell>
        <mxCell id="v7KHOAzaiJnz43zt4m3B-24" value="" style="endArrow=none;html=1;rounded=0;entryX=0.25;entryY=0;entryDx=0;entryDy=0;exitX=0.25;exitY=1;exitDx=0;exitDy=0;" parent="1" source="v7KHOAzaiJnz43zt4m3B-2" target="v7KHOAzaiJnz43zt4m3B-2" edge="1">
          <mxGeometry width="50" height="50" relative="1" as="geometry">
            <mxPoint x="573.9486717694732" y="306.37038506349745" as="sourcePoint" />
            <mxPoint x="573.9486717694732" y="226.5958421304014" as="targetPoint" />
          </mxGeometry>
        </mxCell>
        <mxCell id="QhkLC9uYvlduANRtMDwW-14" value="" style="edgeStyle=none;orthogonalLoop=1;jettySize=auto;html=1;rounded=0;exitX=0.107;exitY=0.175;exitDx=0;exitDy=0;exitPerimeter=0;" parent="1" source="QhkLC9uYvlduANRtMDwW-17" edge="1">
          <mxGeometry width="100" relative="1" as="geometry">
            <mxPoint x="250.33990778537427" y="565.616444465338" as="sourcePoint" />
            <mxPoint x="44.82890589824404" y="455.68940854907055" as="targetPoint" />
            <Array as="points" />
          </mxGeometry>
        </mxCell>
        <mxCell id="QhkLC9uYvlduANRtMDwW-17" value="Notification" style="ellipse;whiteSpace=wrap;html=1;" parent="1" vertex="1">
          <mxGeometry x="226.2662922107159" y="552.2699339490828" width="187.21296713192254" height="122.73006605091707" as="geometry" />
        </mxCell>
        <mxCell id="QhkLC9uYvlduANRtMDwW-18" value="" style="edgeStyle=none;orthogonalLoop=1;jettySize=auto;html=1;rounded=0;entryX=0;entryY=0.5;entryDx=0;entryDy=0;" parent="1" target="QhkLC9uYvlduANRtMDwW-17" edge="1">
          <mxGeometry width="100" relative="1" as="geometry">
            <mxPoint x="10" y="488.86583835710013" as="sourcePoint" />
            <mxPoint x="212.8939374155786" y="592.0866675886064" as="targetPoint" />
            <Array as="points" />
          </mxGeometry>
        </mxCell>
        <mxCell id="QhkLC9uYvlduANRtMDwW-19" value="0.4.3" style="text;html=1;align=center;verticalAlign=middle;resizable=0;points=[];autosize=1;strokeColor=none;fillColor=none;" parent="1" vertex="1">
          <mxGeometry x="286.44188878883386" y="628.976225230906" width="50" height="30" as="geometry" />
        </mxCell>
        <mxCell id="QhkLC9uYvlduANRtMDwW-20" value="Notification&lt;br style=&quot;font-size: 12px;&quot;&gt;Tracked" style="text;html=1;align=center;verticalAlign=middle;resizable=0;points=[];autosize=1;strokeColor=none;fillColor=none;rotation=-30;fontSize=12;" parent="1" vertex="1">
          <mxGeometry x="448.3777285006754" y="587.7448105739253" width="80" height="40" as="geometry" />
        </mxCell>
        <mxCell id="QhkLC9uYvlduANRtMDwW-22" value="" style="edgeStyle=none;orthogonalLoop=1;jettySize=auto;html=1;rounded=0;entryX=0;entryY=1;entryDx=0;entryDy=0;exitX=0.971;exitY=0.325;exitDx=0;exitDy=0;exitPerimeter=0;" parent="1" source="QhkLC9uYvlduANRtMDwW-17" target="v7KHOAzaiJnz43zt4m3B-2" edge="1">
          <mxGeometry width="100" relative="1" as="geometry">
            <mxPoint x="418.82820126069345" y="593.6913312412673" as="sourcePoint" />
            <mxPoint x="579.2964588023414" y="593.4995655130625" as="targetPoint" />
            <Array as="points" />
          </mxGeometry>
        </mxCell>
        <mxCell id="QhkLC9uYvlduANRtMDwW-23" value="Track&lt;br&gt;Notification" style="text;html=1;align=center;verticalAlign=middle;resizable=0;points=[];autosize=1;strokeColor=none;fillColor=none;fontSize=12;rotation=-30;" parent="1" vertex="1">
          <mxGeometry x="409.64484241332747" y="529.9287899316234" width="80" height="40" as="geometry" />
        </mxCell>
        <mxCell id="QhkLC9uYvlduANRtMDwW-24" value="" style="edgeStyle=none;orthogonalLoop=1;jettySize=auto;html=1;rounded=0;exitX=0.25;exitY=1;exitDx=0;exitDy=0;entryX=0.964;entryY=0.675;entryDx=0;entryDy=0;entryPerimeter=0;" parent="1" source="v7KHOAzaiJnz43zt4m3B-2" target="QhkLC9uYvlduANRtMDwW-17" edge="1">
          <mxGeometry width="100" relative="1" as="geometry">
            <mxPoint x="579.2964588023414" y="633.7703684360197" as="sourcePoint" />
            <mxPoint x="432.2005560558307" y="644.3174834872707" as="targetPoint" />
            <Array as="points" />
          </mxGeometry>
        </mxCell>
        <mxCell id="QhkLC9uYvlduANRtMDwW-27" value="Track&lt;br style=&quot;font-size: 12px;&quot;&gt;Notification" style="text;html=1;align=center;verticalAlign=middle;resizable=0;points=[];autosize=1;strokeColor=none;fillColor=none;rotation=30;fontSize=12;" parent="1" vertex="1">
          <mxGeometry x="97.87708239531744" y="563.2775079091691" width="80" height="40" as="geometry" />
        </mxCell>
        <mxCell id="QhkLC9uYvlduANRtMDwW-28" value="View&lt;br style=&quot;font-size: 12px;&quot;&gt;Notification" style="text;html=1;align=center;verticalAlign=middle;resizable=0;points=[];autosize=1;strokeColor=none;fillColor=none;rotation=30;fontSize=12;" parent="1" vertex="1">
          <mxGeometry x="150.34102431337237" y="499.92464829310995" width="80" height="40" as="geometry" />
        </mxCell>
        <mxCell id="QhkLC9uYvlduANRtMDwW-30" value="&lt;font style=&quot;font-size: 12px;&quot;&gt;View Complaint&lt;br style=&quot;font-size: 12px;&quot;&gt;Status&lt;/font&gt;" style="text;html=1;align=center;verticalAlign=middle;resizable=0;points=[];autosize=1;strokeColor=none;fillColor=none;rotation=0;fontSize=12;" parent="1" vertex="1">
          <mxGeometry x="135.8711268023576" y="381.4429917978599" width="110" height="40" as="geometry" />
        </mxCell>
        <mxCell id="QhkLC9uYvlduANRtMDwW-31" value="Track Status" style="text;html=1;align=center;verticalAlign=middle;resizable=0;points=[];autosize=1;strokeColor=none;fillColor=none;rotation=0;fontSize=12;" parent="1" vertex="1">
          <mxGeometry x="125.65185620352821" y="454.7942068155013" width="90" height="30" as="geometry" />
        </mxCell>
        <mxCell id="QhkLC9uYvlduANRtMDwW-32" value="View Response" style="text;html=1;align=center;verticalAlign=middle;resizable=0;points=[];autosize=1;strokeColor=none;fillColor=none;rotation=-23;fontSize=12;" parent="1" vertex="1">
          <mxGeometry x="71.0481764970734" y="307.2895934193366" width="110" height="30" as="geometry" />
        </mxCell>
        <mxCell id="QhkLC9uYvlduANRtMDwW-34" value="Add Complaint" style="text;html=1;align=center;verticalAlign=middle;resizable=0;points=[];autosize=1;strokeColor=none;fillColor=none;rotation=-22;fontSize=12;" parent="1" vertex="1">
          <mxGeometry x="101.28551671785873" y="362.91286861745243" width="100" height="30" as="geometry" />
        </mxCell>
      </root>
    </mxGraphModel>
  </diagram>
</mxfile>
